<svg xmlns="http://www.w3.org/2000/svg" width="609.392" height="160" viewBox="0 0 161.235 42.333"><g aria-label="CentOS" style="font-weight:700;font-size:29.9666px;line-height:1.25;font-family:Montserrat;-inkscape-font-specification:&quot;Montserrat Bold&quot;;fill:#a14f8c;fill-opacity:1;stroke-width:.749167"><path d="M58.705 31.75c3.567 0 6.52-1.286 8.45-3.654l-3.041-2.807c-1.374 1.608-3.1 2.426-5.146 2.426-3.83 0-6.548-2.69-6.548-6.548 0-3.86 2.719-6.55 6.548-6.55 2.047 0 3.772.82 5.146 2.398l3.04-2.806c-1.93-2.34-4.882-3.626-8.42-3.626-6.373 0-11.109 4.415-11.109 10.584s4.736 10.583 11.08 10.583M84.871 23.593c0-5.058-3.567-8.157-8.186-8.157-4.794 0-8.39 3.392-8.39 8.099 0 4.677 3.537 8.098 8.975 8.098 2.836 0 5.029-.877 6.49-2.543l-2.426-2.632c-1.082 1.024-2.28 1.52-3.947 1.52-2.397 0-4.064-1.198-4.502-3.157h11.899c.029-.38.087-.877.087-1.228m-8.157-4.707c2.047 0 3.538 1.287 3.86 3.275h-7.748c.322-2.018 1.813-3.275 3.888-3.275M97.472 15.436c-2.134 0-3.976.731-5.204 2.076V15.67h-4.356V31.4h4.56v-7.778c0-2.894 1.58-4.239 3.772-4.239 2.017 0 3.187 1.17 3.187 3.713V31.4h4.56v-9.004c0-4.795-2.806-6.959-6.52-6.959M117.03 27.423c-.497.38-1.169.585-1.841.585-1.228 0-1.96-.731-1.96-2.076V19.53h3.918v-3.508h-3.917v-3.83h-4.56v3.83h-2.427v3.508h2.426v6.462c0 3.742 2.164 5.642 5.876 5.642 1.404 0 2.778-.322 3.713-.994zM131.064 31.75c6.431 0 11.197-4.473 11.197-10.583s-4.766-10.584-11.197-10.584c-6.461 0-11.198 4.503-11.198 10.584s4.737 10.583 11.198 10.583m0-4.035c-3.655 0-6.403-2.66-6.403-6.548s2.748-6.55 6.403-6.55 6.402 2.661 6.402 6.55-2.748 6.548-6.402 6.548M152.552 31.75c5.847 0 8.683-2.924 8.683-6.344 0-7.514-11.9-4.912-11.9-8.683 0-1.287 1.083-2.339 3.89-2.339 1.812 0 3.77.526 5.671 1.608l1.462-3.596c-1.9-1.199-4.532-1.813-7.104-1.813-5.818 0-8.625 2.895-8.625 6.374 0 7.601 11.899 4.97 11.899 8.8 0 1.257-1.14 2.192-3.947 2.192-2.456 0-5.028-.877-6.753-2.134l-1.608 3.567c1.812 1.403 5.087 2.368 8.332 2.368"/></g><g transform="matrix(1.0529 0 0 1.05289 -387.492 265.985)"><circle cx="435.079" cy="-124.144" r="20.103" style="fill:#a14f8c;fill-opacity:1;stroke:none;stroke-width:1.32292;stroke-linecap:round;stroke-miterlimit:4;stroke-dasharray:none;stroke-opacity:1;paint-order:fill markers stroke;stop-color:#000" transform="rotate(-15)"/><path d="m384.257-249.617-3.875 3.875h-5.479v5.48l-3.875 3.875 3.875 3.874v5.48h5.48l3.874 3.875 3.875-3.875h5.48v-5.48l3.874-3.874-3.875-3.875-5.48-5.48zm1.176 3.875v4.18l-1.176 1.176-1.176-1.176v-4.18zm-6.959 1.908 2.956 2.957v1.662h-1.663l-2.956-2.956zm-3.571 6.27h4.18l1.176 1.177-1.176 1.176h-4.18zm14.434 0h4.18v2.353h-4.18l-1.176-1.176zm-9.503 3.937h1.663v1.663l-2.956 2.956-1.663-1.663zm7.184 0h1.663l2.956 2.956-1.663 1.663-2.956-2.956zm-2.76 1.143 1.175 1.176v4.18h-2.352v-4.18z" style="fill:#fff;fill-opacity:1;stroke-width:7.93746;stroke-linecap:round;paint-order:fill markers stroke;stop-color:#000" transform="translate(-53.772 39.325)scale(1.15)"/><path d="m385.433-239.09-1.176 1.04-1.176-1.04v1.526h-1.526l1.039 1.177-1.04 1.176h1.527v1.526l1.176-1.04 1.176 1.04v-1.526h1.527l-1.04-1.176 1.04-1.177h-1.527z" style="fill:#efa724;fill-opacity:1;stroke-width:8.59212;stroke-linecap:round;paint-order:fill markers stroke;stop-color:#000" transform="translate(-53.772 39.325)scale(1.15)"/><path d="m388.135-245.738 1.905 1.905-2.956 2.956v1.663h1.663l2.956-2.956 1.911 1.911-.003-5.483z" style="fill:#efa724;fill-opacity:1;stroke-width:6.14231;stroke-linecap:round;paint-order:fill markers stroke;stop-color:#000" transform="translate(-53.772 39.325)scale(1.15)"/></g></svg>